<svg width="642" height="161" viewBox="0 0 642 161" fill="none" xmlns="http://www.w3.org/2000/svg">
<path fill-rule="evenodd" clip-rule="evenodd" d="M98.6153 155.985C109.367 153.297 127.513 142.599 130.482 137.589L131.146 90.8187C131.146 90.8187 136.585 84.3094 134.594 82.316C132.605 80.3227 117.086 73.4134 117.086 73.4134C117.086 73.4134 108.862 79.1934 107.005 79.4587C105.147 79.724 75.5673 79.9894 75.1033 79.9894C74.6393 79.9894 77.1513 89.16 78.478 90.0894C79.8046 91.02 107.925 90.2894 107.925 90.2894L107.767 122.239C107.767 136.487 108.442 146.891 98.6153 155.985Z" fill="#920005"/>
<path fill-rule="evenodd" clip-rule="evenodd" d="M125.706 40.4604L125.972 22.2564C125.972 22.2564 109.656 0.599083 72.1183 1.92708C31.0677 3.56175 2.33433 30.6044 0.186331 74.1151C-1.16434 101.494 4.753 124.756 20.3903 140.464C33.2543 153.387 51.681 160.932 71.9383 160.103C91.6263 159.295 102.058 147.146 103.621 141.824C94.8517 146.003 84.345 148.678 73.805 148.391C34.5557 147.326 22.3463 108.467 23.4263 77.8657C24.553 45.9177 40.9663 11.0697 78.2837 12.6937C94.893 13.4177 109.477 22.5697 118.544 40.4604H125.706Z" fill="#920005"/>
<path fill-rule="evenodd" clip-rule="evenodd" d="M401.872 35.4113V19.2006C392.51 7.11664 375.646 1.55798 362.086 0.840643C337.627 -0.451357 313.532 10.5806 311.307 38.1566C309.779 57.0833 321.46 70.078 340.988 79.3926C363.272 90.022 383.7 98.9246 388.475 111.681C393.251 124.437 383.966 147.158 360.752 149.55C341.695 151.582 319.279 141.814 317.776 122.443L311.011 121.911L309.816 139.45C309.816 139.45 323.65 157.747 352.434 159.21C381.218 160.671 404.923 146.494 408.107 127.094C411.29 107.694 407.974 88.4273 377.067 72.4833C360.69 64.034 328.419 53.978 330.47 31.4966C332.128 13.2913 351.823 7.62464 367.528 9.97131C381.934 12.126 393.515 24.4153 394.975 35.678L401.872 35.4113Z" fill="#920005"/>
<path fill-rule="evenodd" clip-rule="evenodd" d="M435.298 140.381C435.298 140.381 436.293 15.414 436.293 13.2887C436.293 11.162 434.237 7.11004 434.237 7.11004L439.145 1.52871C439.145 1.52871 458.113 11.0967 458.512 11.7607C458.909 12.4247 458.378 13.4874 458.113 15.4807C457.848 17.474 456.786 49.4954 457.317 65.8394C457.848 82.1834 457.582 153.402 457.582 153.402C457.582 153.402 450.685 159.381 449.093 159.647C447.501 159.913 446.705 160.311 445.777 159.515C444.849 158.717 434.104 146.891 434.104 146.891C434.104 146.891 435.63 141.178 435.298 140.381Z" fill="#920005"/>
<path fill-rule="evenodd" clip-rule="evenodd" d="M489.815 158.053L489.948 12.4254L486.631 7.77475C486.631 7.77475 486.1 3.12408 487.295 3.12408C488.488 3.12408 515.548 5.24942 515.548 5.24942L517.508 14.0961L568.939 117.425L566.263 101.472L614.148 9.65608C614.148 9.65608 612.71 6.54541 612.047 6.01341C611.383 5.48141 615.156 -0.725255 616.218 0.0707452C617.047 0.693412 632.728 7.58674 638.93 10.5441C642.336 12.1681 641.092 12.1067 639.711 14.7481C639.11 15.8974 638.82 17.4307 638.51 18.9361C637.714 22.7894 639.158 150.081 639.158 150.081C639.158 150.081 630.75 159.715 628.627 159.316C626.504 158.916 615.107 147.877 614.178 146.151C614.178 146.151 616.16 139.449 616.154 135.744L615.964 29.9641L560.912 136.66C560.912 136.66 556.802 136.793 555.474 136.395C554.148 135.996 501.044 29.8534 501.044 29.8534L501.222 153.271C501.222 153.271 494.591 158.319 489.815 158.053Z" fill="#920005"/>
<path fill-rule="evenodd" clip-rule="evenodd" d="M267.209 54.8616C268.669 45.9323 269.165 31.8816 263.713 21.2029C218.145 -9.96374 163.774 18.4283 153.133 61.4336C158.183 50.8069 173.593 37.6883 191.985 31.3536C214.891 23.4629 246.646 26.7229 267.209 54.8616Z" fill="#C98D65"/>
<path fill-rule="evenodd" clip-rule="evenodd" d="M222.943 130.299C229.933 136.047 241.833 143.533 253.805 144.181C303.642 120.43 306.397 59.1553 274.554 28.354C281.206 38.058 284.811 57.9713 281.053 77.0567C276.37 100.829 257.603 126.651 222.943 130.299Z" fill="#061767"/>
<path fill-rule="evenodd" clip-rule="evenodd" d="M177.874 55.9048C169.437 59.1741 157.075 65.8701 150.634 75.9834C146.874 131.062 198.911 163.531 241.375 150.899C229.655 151.934 210.535 145.303 195.751 132.663C177.335 116.918 164.046 87.8941 177.874 55.9048Z" fill="#3D5457"/>
</svg>
