<svg width="642" height="161" viewBox="0 0 642 161" fill="none" xmlns="http://www.w3.org/2000/svg">
<path fill-rule="evenodd" clip-rule="evenodd" d="M98.8477 156.185C109.6 153.497 127.745 142.798 130.714 137.789L131.378 91.0179C131.378 91.0179 136.817 84.5086 134.826 82.5152C132.837 80.5219 117.318 73.6126 117.318 73.6126C117.318 73.6126 109.094 79.3926 107.237 79.6579C105.38 79.9232 75.7997 80.1886 75.3357 80.1886C74.8717 80.1886 77.3837 89.3592 78.7104 90.2886C80.037 91.2192 108.157 90.4886 108.157 90.4886L108 122.438C108 136.686 108.674 147.09 98.8477 156.185Z" fill="#920005"/>
<path fill-rule="evenodd" clip-rule="evenodd" d="M125.939 40.6596L126.204 22.4556C126.204 22.4556 109.888 0.798301 72.3507 2.1263C31.3001 3.76097 2.56675 30.8036 0.418753 74.3143C-0.931914 101.693 4.98542 124.956 20.6228 140.664C33.4868 153.586 51.9134 161.132 72.1707 160.302C91.8587 159.494 102.291 147.345 103.853 142.024C95.0841 146.202 84.5774 148.877 74.0374 148.59C34.7881 147.525 22.5788 108.666 23.6588 78.065C24.7854 46.117 41.1987 11.269 78.5161 12.893C95.1254 13.617 109.709 22.769 118.776 40.6596H125.939Z" fill="#920005"/>
<path fill-rule="evenodd" clip-rule="evenodd" d="M402.105 35.6105V19.3999C392.742 7.31586 375.878 1.75719 362.318 1.03986C337.859 -0.252139 313.765 10.7799 311.539 38.3559C310.011 57.2825 321.693 70.2772 341.221 79.5919C363.505 90.2212 383.933 99.1239 388.707 111.88C393.483 124.636 384.198 147.357 360.985 149.749C341.927 151.781 319.511 142.013 318.009 122.643L311.243 122.111L310.049 139.649C310.049 139.649 323.882 157.947 352.666 159.409C381.45 160.871 405.155 146.693 408.339 127.293C411.522 107.893 408.206 88.6265 377.299 72.6825C360.922 64.2332 328.651 54.1772 330.702 31.6959C332.361 13.4905 352.055 7.82386 367.761 10.1705C382.166 12.3252 393.747 24.6145 395.207 35.8772L402.105 35.6105Z" fill="#920005"/>
<path fill-rule="evenodd" clip-rule="evenodd" d="M435.531 140.58C435.531 140.58 436.525 15.6133 436.525 13.4879C436.525 11.3613 434.469 7.30925 434.469 7.30925L439.377 1.72792C439.377 1.72792 458.345 11.2959 458.744 11.9599C459.141 12.6239 458.611 13.6866 458.345 15.6799C458.08 17.6733 457.019 49.6946 457.549 66.0386C458.08 82.3826 457.815 153.601 457.815 153.601C457.815 153.601 450.917 159.58 449.325 159.847C447.733 160.112 446.937 160.511 446.009 159.715C445.081 158.916 434.336 147.091 434.336 147.091C434.336 147.091 435.863 141.377 435.531 140.58Z" fill="#920005"/>
<path fill-rule="evenodd" clip-rule="evenodd" d="M490.048 158.253L490.181 12.6246L486.864 7.97396C486.864 7.97396 486.333 3.3233 487.528 3.3233C488.721 3.3233 515.781 5.44863 515.781 5.44863L517.741 14.2953L569.172 117.625L566.496 101.671L614.381 9.8553C614.381 9.8553 612.942 6.74463 612.28 6.21263C611.616 5.68063 615.389 -0.526036 616.45 0.269964C617.28 0.892631 632.961 7.78596 639.162 10.7433C642.569 12.3673 641.325 12.306 639.944 14.9473C639.342 16.0966 639.053 17.63 638.742 19.1353C637.946 22.9886 639.39 150.281 639.39 150.281C639.39 150.281 630.982 159.914 628.86 159.515C626.737 159.115 615.34 148.077 614.41 146.35C614.41 146.35 616.393 139.649 616.386 135.943L616.197 30.1633L561.145 136.859C561.145 136.859 557.034 136.993 555.706 136.594C554.381 136.195 501.277 30.0526 501.277 30.0526L501.454 153.47C501.454 153.47 494.824 158.518 490.048 158.253Z" fill="#920005"/>
<path fill-rule="evenodd" clip-rule="evenodd" d="M267.441 55.0608C268.901 46.1315 269.397 32.0808 263.945 21.4021C218.377 -9.76452 164.007 18.6275 153.365 61.6328C158.416 51.0061 173.825 37.8875 192.217 31.5528C215.124 23.6621 246.879 26.9221 267.441 55.0608Z" fill="#E5C347"/>
<path fill-rule="evenodd" clip-rule="evenodd" d="M223.176 130.499C230.165 136.247 242.065 143.732 254.037 144.38C303.874 120.629 306.629 59.3546 274.786 28.5532C281.438 38.2572 285.044 58.1706 281.285 77.2559C276.602 101.028 257.836 126.851 223.176 130.499Z" fill="#061767"/>
<path fill-rule="evenodd" clip-rule="evenodd" d="M178.106 56.104C169.669 59.3733 157.308 66.0693 150.866 76.1827C147.106 131.261 199.144 163.731 241.608 151.099C229.888 152.133 210.768 145.503 195.984 132.863C177.568 117.117 164.278 88.0933 178.106 56.104Z" fill="#426B59"/>
</svg>
