<svg width="565" height="197" viewBox="0 0 565 197" fill="none" xmlns="http://www.w3.org/2000/svg">
<path d="M148.033 167.673C149.318 167.322 150.623 167.049 151.941 166.855C153.604 166.598 155.283 166.472 156.965 166.478C158.478 166.433 159.985 166.67 161.411 167.176C162.505 167.577 163.474 168.257 164.222 169.149C164.932 170.037 165.436 171.072 165.697 172.179C166.003 173.458 166.151 174.77 166.137 176.086V187.93H160.194V176.805C160.303 175.406 160.042 174.003 159.437 172.737C158.773 171.865 157.696 171.41 156.607 171.542C156.181 171.542 155.729 171.56 155.251 171.6C154.771 171.641 154.346 171.688 153.975 171.741V187.931H148.033L148.033 167.673ZM137.07 177.403C137.154 175.882 136.771 174.373 135.973 173.076C135.275 172.043 134.089 171.446 132.843 171.502C131.592 171.449 130.402 172.044 129.693 173.076C128.882 174.368 128.492 175.88 128.577 177.403C128.497 178.938 128.887 180.461 129.694 181.769C130.39 182.82 131.584 183.432 132.844 183.383C134.1 183.435 135.289 182.822 135.974 181.769C136.768 180.456 137.15 178.935 137.07 177.403ZM143.131 177.403C143.149 178.941 142.906 180.471 142.413 181.929C141.974 183.23 141.268 184.426 140.34 185.439C139.43 186.412 138.322 187.18 137.09 187.691C135.743 188.239 134.298 188.51 132.843 188.488C131.402 188.507 129.972 188.236 128.637 187.691C127.406 187.18 126.298 186.412 125.387 185.438C124.456 184.421 123.737 183.228 123.273 181.929C122.755 180.477 122.499 178.944 122.516 177.403C122.496 175.866 122.76 174.338 123.293 172.897C123.77 171.607 124.503 170.428 125.446 169.428C126.371 168.466 127.484 167.706 128.716 167.194C131.379 166.131 134.348 166.131 137.01 167.194C138.238 167.702 139.346 168.464 140.26 169.428C141.191 170.43 141.91 171.61 142.373 172.897C142.894 174.341 143.151 175.868 143.131 177.403ZM110.835 188.488C106.343 188.488 102.92 187.239 100.567 184.741C98.2147 182.241 97.0387 178.692 97.0394 174.094C97.0042 172.004 97.3695 169.926 98.1154 167.973C98.7741 166.27 99.7786 164.721 101.065 163.426C102.334 162.178 103.858 161.22 105.532 160.616C107.334 159.964 109.238 159.64 111.154 159.659C112.223 159.651 113.291 159.737 114.344 159.918C115.193 160.066 116.032 160.265 116.856 160.515C117.472 160.701 118.071 160.935 118.65 161.214C119.13 161.453 119.475 161.639 119.687 161.772L117.893 166.796C116.947 166.306 115.952 165.919 114.923 165.64C113.668 165.304 112.373 165.143 111.074 165.161C110.117 165.161 109.167 165.323 108.264 165.641C107.347 165.959 106.515 166.485 105.832 167.176C105.08 167.955 104.502 168.886 104.137 169.906C103.68 171.212 103.464 172.59 103.498 173.973C103.49 175.176 103.631 176.375 103.918 177.543C104.164 178.578 104.626 179.549 105.273 180.393C105.926 181.213 106.768 181.863 107.726 182.287C108.884 182.782 110.136 183.021 111.394 182.986C112.207 182.991 113.02 182.938 113.825 182.826C114.47 182.734 115.109 182.608 115.74 182.446C116.244 182.318 116.738 182.152 117.216 181.949C117.641 181.762 118.026 181.59 118.371 181.429L120.087 186.414C118.922 187.06 117.674 187.543 116.377 187.849C114.565 188.301 112.703 188.515 110.835 188.488ZM87.1923 175.329C87.1673 174.829 87.0807 174.334 86.9343 173.855C86.7943 173.389 86.5635 172.955 86.2553 172.578C85.9379 172.196 85.5446 171.883 85.1003 171.661C84.5588 171.405 83.964 171.281 83.3653 171.301C82.7755 171.286 82.1897 171.402 81.6503 171.641C81.1919 171.851 80.7838 172.157 80.4533 172.538C80.1291 172.92 79.8791 173.36 79.7163 173.834C79.5446 174.32 79.4174 174.82 79.3363 175.329L87.1923 175.329ZM73.2363 177.602C73.2013 175.933 73.4928 174.274 74.0943 172.718C74.6043 171.416 75.3704 170.229 76.3473 169.229C77.2594 168.31 78.3525 167.59 79.5573 167.116C80.743 166.641 82.0082 166.397 83.2853 166.397C85.9193 166.261 88.4861 167.255 90.3423 169.129C92.071 170.949 92.935 173.627 92.9343 177.163C92.9343 177.508 92.921 177.887 92.8943 178.301C92.872 178.666 92.8453 179.032 92.8143 179.397H79.3373C79.4442 180.575 80.0736 181.643 81.0523 182.307C82.2626 183.081 83.6846 183.457 85.1193 183.383C86.1963 183.384 87.271 183.285 88.3293 183.085C89.2113 182.935 90.0739 182.687 90.9013 182.347L91.6993 187.172C91.2877 187.367 90.8606 187.526 90.4223 187.65C89.839 187.822 89.2468 187.962 88.6483 188.07C87.9963 188.19 87.2983 188.289 86.5543 188.368C85.8126 188.447 85.0672 188.487 84.3213 188.488C82.6417 188.524 80.9705 188.24 79.3973 187.65C78.0866 187.149 76.902 186.367 75.9273 185.358C75.002 184.373 74.3079 183.195 73.8953 181.908C73.4461 180.517 73.2235 179.063 73.2363 177.602ZM69.3313 177.442C69.3523 178.989 69.1029 180.528 68.5943 181.989C68.1395 183.284 67.4117 184.467 66.4603 185.457C65.494 186.438 64.3232 187.193 63.0313 187.67C61.5504 188.21 59.9826 188.474 58.4063 188.447C57.689 188.447 56.938 188.414 56.1533 188.349C55.3693 188.282 54.5983 188.195 53.8403 188.089C53.0837 187.983 52.3593 187.857 51.6673 187.709C50.9767 187.563 50.3653 187.411 49.8333 187.252V157.945L55.7743 156.987V167.433C56.442 167.14 57.1366 166.913 57.8483 166.756C58.6083 166.592 59.384 166.512 60.1613 166.518C61.5171 166.491 62.8627 166.756 64.1073 167.294C65.2259 167.794 66.2096 168.552 66.9773 169.507C67.7838 170.53 68.3808 171.703 68.7343 172.957C69.1483 174.416 69.3494 175.926 69.3313 177.442ZM63.2713 177.283C63.2713 173.454 61.862 171.54 59.0433 171.542C58.4312 171.542 57.8216 171.622 57.2303 171.781C56.7173 171.904 56.2262 172.106 55.7743 172.379V183.184C56.067 183.237 56.4393 183.284 56.8913 183.324C57.3433 183.364 57.8343 183.384 58.3663 183.384C59.7927 183.475 61.17 182.847 62.0363 181.71C62.9143 180.406 63.3482 178.853 63.2713 177.283ZM43.9353 187.212C42.6499 187.563 41.3446 187.836 40.0263 188.03C38.3641 188.287 36.6843 188.413 35.0023 188.408C33.4883 188.453 31.9794 188.21 30.5563 187.691C29.4608 187.275 28.4921 186.581 27.7453 185.678C27.0323 184.768 26.5287 183.712 26.2703 182.586C25.9674 181.292 25.8204 179.967 25.8323 178.638V166.955H31.7733V177.921C31.6738 179.345 31.9341 180.771 32.5303 182.068C33.1652 182.984 34.2538 183.474 35.3603 183.343C35.7863 183.343 36.2403 183.325 36.7173 183.284C37.196 183.244 37.621 183.197 37.9923 183.144V166.955H43.9353V187.212ZM16.5033 187.93C15.946 187.025 15.2883 186.048 14.5303 184.998C13.7723 183.948 12.9483 182.898 12.0583 181.848C11.1676 180.798 10.2437 179.788 9.28631 178.818C8.38653 177.899 7.42711 177.04 6.41431 176.248V187.93H0.195312V160.297H6.41531V170.743C8.03664 169.043 9.66531 167.269 11.3013 165.421C12.9353 163.574 14.457 161.866 15.8663 160.297H23.2433C21.3547 162.529 19.4606 164.682 17.5613 166.756C15.6606 168.831 13.66 170.917 11.5593 173.016C13.8981 174.985 16.0413 177.175 17.9593 179.556C20.1136 182.215 22.0915 185.012 23.8803 187.93L16.5033 187.93Z" fill="black"/>
<path fill-rule="evenodd" clip-rule="evenodd" d="M66.3732 65.9868L62.9592 66.7168C62.9245 66.2322 62.9068 65.7465 62.9062 65.2598C62.901 61.6056 63.9075 58.0212 65.8142 54.9038L72.5022 60.8698L72.8612 61.1838C72.4488 62.194 72.1938 63.2614 72.1052 64.3488C71.8842 64.4088 71.6632 64.4688 71.4432 64.5328L66.3732 65.9868ZM79.3802 45.6698V55.0648C78.4531 55.3758 77.5729 55.8122 76.7642 56.3618C76.4647 56.1368 76.1627 55.9151 75.8582 55.6968L69.0682 50.8698C71.9129 48.151 75.5028 46.3408 79.3802 45.6698ZM32.7372 67.3128C36.0052 52.9978 38.7542 40.9498 42.0212 26.6328C43.4972 20.1678 44.4432 18.5228 50.2672 15.1758L72.9782 2.12283C78.3582 -0.97017 79.3812 -0.73717 79.3812 5.85183V39.0098C73.3686 39.786 67.8067 42.6085 63.6302 47.0028L60.7562 44.9608C60.4268 44.7352 60.1795 44.4089 60.0512 44.0308C59.7944 43.128 59.2623 42.3279 58.5292 41.7418C57.1659 40.6547 55.1793 40.8785 54.0922 42.2418C53.005 43.6051 53.2289 45.5917 54.5922 46.6788C55.0488 47.0547 55.5808 47.3282 56.1522 47.4808C56.5292 47.5778 56.9072 47.6048 57.2872 47.6678C57.6094 47.7067 57.9111 47.8463 58.1492 48.0668L60.8392 50.4668C57.8871 54.8348 56.3133 59.9879 56.3212 65.2598C56.3216 66.2095 56.3727 67.1586 56.4742 68.1028L50.6692 69.3428C50.2641 69.32 49.8578 69.3584 49.4642 69.4568C49.1713 69.5233 48.8897 69.6321 48.6282 69.7798C44.8232 70.5948 40.9842 71.4168 37.0722 72.2598C31.7602 73.4038 31.5832 72.3658 32.7372 67.3128ZM86.1972 55.0648V45.6698C90.0472 46.3368 93.6143 48.1268 96.4502 50.8148L89.0402 56.0838C88.9372 56.1578 88.8322 56.2328 88.7302 56.3078C87.9443 55.7832 87.0931 55.3652 86.1972 55.0648ZM102.653 66.1048L93.4382 64.0018C93.3253 63.0025 93.0708 62.0244 92.6822 61.0968C92.7672 61.0238 92.8522 60.9488 92.9352 60.8748L99.7152 54.8248C101.653 57.9602 102.676 61.5742 102.671 65.2598C102.671 65.5412 102.665 65.8228 102.653 66.1048ZM90.6652 15.4068L104.19 21.9198L124.95 31.9178L130.077 54.3808L132.663 65.7078C134.252 72.6758 134.095 73.2818 126.906 71.6398L109.154 67.5888C109.222 66.8142 109.256 66.0375 109.257 65.2588C109.265 59.9558 107.672 54.774 104.687 50.3908L107.216 48.1348C107.508 47.8628 107.882 47.6938 108.279 47.6538C109.216 47.6041 110.115 47.2633 110.849 46.6788C112.212 45.5917 112.436 43.6051 111.349 42.2418C110.262 40.8785 108.275 40.6547 106.912 41.7418C106.445 42.1043 106.059 42.5621 105.782 43.0848C105.605 43.4298 105.494 43.7928 105.347 44.1508C105.238 44.4555 105.035 44.7179 104.768 44.9008L101.894 46.9448C97.7224 42.5834 92.182 39.7832 86.1962 39.0108V18.7558C86.1962 14.0048 86.6182 13.4588 90.6652 15.4068ZM84.5972 75.7988C83.4347 75.9964 82.2477 76.0025 81.0832 75.8168C80.9782 76.0128 80.8722 76.2108 80.7642 76.4058L76.5072 84.1278C80.6178 85.4911 85.0603 85.4802 89.1642 84.0968L84.9582 76.4698C84.8363 76.2473 84.716 76.023 84.5972 75.7988ZM92.0402 70.6498L101.213 72.7438C99.7025 76.4484 97.1136 79.6135 93.7822 81.8288L90.1322 73.0418C90.8788 72.3394 91.5213 71.5339 92.0402 70.6498ZM64.3642 72.7438L73.5382 70.6498C74.0758 71.5667 74.7468 72.3984 75.5292 73.1178C75.4458 73.3085 75.3638 73.5002 75.2832 73.6928L71.8812 81.8848C68.5091 79.6682 65.8882 76.4804 64.3642 72.7438ZM139.652 88.8748L128.868 102.397L114.87 119.952C111.282 124.451 108.776 124.589 102.855 124.589H62.6082C54.8942 124.589 54.3892 124.567 49.6802 118.662L36.7082 102.397C33.0622 97.8248 32.1282 96.6518 28.4802 92.0798C22.8072 84.9638 21.8842 82.4398 30.6702 80.4348L57.8802 74.2248C59.9743 80.0208 64.0195 84.9077 69.3222 88.0478L68.1232 90.9338C67.9769 91.3056 67.7137 91.6198 67.3732 91.8288C66.5512 92.2806 65.8902 92.9772 65.4822 93.8218C64.7255 95.3928 65.3857 97.2797 66.9567 98.0363C68.5276 98.7929 70.4145 98.1328 71.1712 96.5618C71.4357 96.0327 71.5837 95.453 71.6052 94.8618C71.6152 94.4738 71.5582 94.0988 71.5352 93.7138C71.5013 93.3912 71.5699 93.0662 71.7312 92.7848L73.2842 89.9688C79.4348 92.3252 86.2415 92.3124 92.3832 89.9328L93.9072 92.6958C94.1066 93.0419 94.188 93.4434 94.1392 93.8398C93.9799 94.7645 94.1124 95.7158 94.5182 96.5618C95.2561 98.1415 97.135 98.8238 98.7147 98.0859C100.294 97.3479 100.977 95.4691 100.239 93.8894C100.228 93.8667 100.217 93.8442 100.206 93.8218C99.9581 93.2846 99.5973 92.8071 99.1482 92.4218C98.8532 92.1718 98.5222 91.9818 98.2082 91.7608C97.9346 91.5867 97.7231 91.3305 97.6042 91.0288L96.3442 87.9948C101.605 84.852 105.616 79.9862 107.697 74.2228L137.712 81.0748C143.539 82.4048 143.112 84.5378 139.652 88.8748Z" fill="black"/>
<path fill-rule="evenodd" clip-rule="evenodd" d="M86.1971 55.0651V45.6701C90.0475 46.3369 93.6149 48.1269 96.451 50.8151L89.0411 56.0841C88.9381 56.1581 88.8331 56.2331 88.7311 56.3081C87.9451 55.7834 87.093 55.3654 86.1971 55.0651ZM102.654 66.1051L93.439 64.0021C93.3262 63.0028 93.0716 62.0246 92.6831 61.0971C92.7681 61.0241 92.8531 60.9491 92.9361 60.8751L99.7161 54.8251C101.653 57.9605 102.677 61.5744 102.672 65.2601C102.672 65.5414 102.666 65.8231 102.654 66.1051ZM90.666 15.4071L104.191 21.9201L124.951 31.9181L130.078 54.3811L132.664 65.7081C134.253 72.6761 134.096 73.2821 126.907 71.6401L109.155 67.5891C109.223 66.8144 109.257 66.0377 109.258 65.2591C109.266 59.9561 107.673 54.7742 104.688 50.3911L107.217 48.1351C107.509 47.863 107.883 47.6941 108.28 47.6541C109.217 47.6043 110.116 47.2635 110.85 46.6791C112.213 45.5919 112.437 43.6054 111.35 42.2421C110.263 40.8788 108.276 40.6549 106.913 41.7421C106.445 42.1045 106.06 42.5623 105.783 43.0851C105.606 43.4301 105.495 43.7931 105.348 44.1511C105.239 44.4557 105.036 44.7181 104.769 44.9011L101.895 46.9451C97.7232 42.5836 92.1828 39.7835 86.1971 39.0111V18.7561C86.1971 14.0051 86.619 13.4591 90.666 15.4071ZM92.0411 70.6501L101.214 72.7441C99.7034 76.4486 97.1145 79.6138 93.7831 81.8291L90.1331 73.0421C90.8797 72.3396 91.5222 71.5342 92.0411 70.6501ZM82.7891 85.1421V75.9521C83.3953 75.9516 84.0004 75.9005 84.5981 75.7991C84.7181 76.0241 84.8371 76.2471 84.9591 76.4701L89.1651 84.0961C87.111 84.7901 84.9572 85.1434 82.7891 85.1421ZM139.653 88.8761L128.869 102.397L114.871 119.952C111.283 124.451 108.777 124.589 102.856 124.589H82.7891V91.7271C86.0711 91.7303 89.3249 91.1219 92.3841 89.9331L93.9081 92.6961C94.1075 93.0421 94.1889 93.4436 94.1401 93.8401C93.9808 94.7647 94.1133 95.7161 94.5191 96.5621C95.2569 98.1418 97.1357 98.8243 98.7154 98.0865C100.295 97.3487 100.978 95.4699 100.24 93.8901C100.229 93.8673 100.218 93.8446 100.207 93.8221C99.959 93.2848 99.5982 92.8073 99.1491 92.4221C98.8541 92.1721 98.5231 91.9821 98.2091 91.7611C97.9355 91.587 97.724 91.3307 97.6051 91.0291L96.3451 87.9951C101.605 84.8522 105.617 79.9864 107.698 74.223L137.713 81.0751C143.54 82.4051 143.113 84.5381 139.653 88.8751" fill="black"/>
<path d="M362.051 87.7459H346.111V124.932H383.295V108.994H362.051V87.7459ZM441.729 87.8649V108.994H420.599L420.482 108.877V124.932H457.665V87.7459H441.609L441.729 87.8649ZM346.111 50.5659H362.169L362.05 50.4449V29.3139H383.179L383.295 29.4329V13.3779H346.111V50.5659ZM420.482 13.3779V29.3139H441.729V50.5659H457.666V13.3779L420.482 13.3779Z" fill="black"/>
<path opacity="0.8" d="M418.514 50.5659L397.263 29.3139H420.481V13.3779H383.295V29.4329L404.427 50.5659H418.514ZM399.349 87.7459H385.265L402.871 105.355L406.513 108.994H383.294V124.932H420.482V108.877L409.914 98.3099L399.349 87.7459ZM441.729 50.5659V73.7799L438.088 70.1389L420.482 52.5339V66.6199L431.044 77.1809L441.609 87.7459H457.665V50.5659L441.729 50.5659ZM383.295 71.6899L362.169 50.5659H346.111V87.7459H362.051V64.5309L383.295 85.7759V71.6899Z" fill="black"/>
<path d="M268.343 165.489L264.306 170.271C262.629 168.142 260.114 166.842 257.408 166.705C253.181 166.708 249.757 170.136 249.76 174.363C249.76 174.462 249.762 174.561 249.766 174.66C249.766 179.246 253.058 182.733 257.408 182.733C260.033 182.584 262.502 181.434 264.306 179.52L268.382 183.83C265.397 186.904 261.337 188.703 257.055 188.847C248.786 188.847 242.633 182.772 242.633 174.739C242.633 166.822 248.943 160.864 257.291 160.864C261.436 160.909 265.401 162.568 268.343 165.489ZM271.716 188.534V159.454H278.496V188.534H271.716ZM305.421 177.952C305.421 184.458 300.797 188.769 293.9 188.769C286.962 188.769 282.338 184.458 282.338 177.952C282.338 171.446 286.962 167.174 293.9 167.174C300.797 167.174 305.421 171.447 305.421 177.952ZM289.157 178.03C289.157 181.322 291.077 183.517 293.9 183.517C296.682 183.517 298.602 181.322 298.602 178.03C298.602 174.778 296.682 172.544 293.9 172.544C291.077 172.544 289.157 174.778 289.157 178.03ZM329.644 188.534H322.864V185.046C321.478 187.501 318.821 188.959 316.006 188.808C311.42 188.808 308.442 185.672 308.442 180.735V167.41H315.222V178.814C315.222 181.322 316.593 182.851 318.749 182.851C321.335 182.812 322.864 180.696 322.864 177.835V167.41H329.644V188.534ZM356.336 188.534H349.555V185.751C348.062 187.743 345.694 188.883 343.206 188.808C337.249 188.808 333.33 184.418 333.33 177.873C333.33 171.407 337.21 167.135 343.05 167.135C345.585 167.041 348.009 168.18 349.555 170.192V159.454H356.335L356.336 188.534ZM349.555 178.03C349.555 174.778 347.675 172.544 344.853 172.544C342.03 172.544 340.149 174.778 340.111 178.03C340.149 181.283 342.031 183.556 344.853 183.556C347.674 183.556 349.555 181.283 349.555 178.03ZM381.146 188.534L368.526 171.642V188.534H361.982V161.1H368.135L380.793 178.03V161.1H387.3V188.534H381.146ZM411.444 174.739V188.534H404.821V186.104C403.45 187.906 401.216 188.847 398.355 188.847C393.848 188.847 391.105 186.104 391.105 182.224C391.105 178.226 393.965 175.874 399.216 175.836H404.782V175.522C404.782 173.445 403.41 172.191 400.666 172.191C398.458 172.302 396.302 172.904 394.357 173.955L392.437 169.487C395.477 167.952 398.828 167.135 402.234 167.097C408.034 167.097 411.405 169.957 411.444 174.739ZM404.782 181.362V179.48H400.51C398.472 179.48 397.453 180.186 397.453 181.754C397.453 183.282 398.55 184.262 400.433 184.262C402.374 184.397 404.161 183.205 404.783 181.362L404.782 181.362ZM429.71 187.397C427.984 188.357 426.04 188.856 424.066 188.847C419.99 188.847 417.051 186.535 417.051 182.146V172.818H414.112V168.389H417.052V162.511H423.792V168.351H429.318V172.818H423.792V181.088C423.792 182.733 424.497 183.438 425.752 183.4C426.663 183.33 427.553 183.091 428.377 182.694L429.71 187.397ZM440.097 161.335C440.097 163.304 438.5 164.901 436.531 164.901C434.561 164.901 432.965 163.304 432.965 161.335C432.965 159.366 434.561 157.769 436.53 157.769C438.432 157.701 440.029 159.189 440.097 161.092C440.1 161.173 440.1 161.254 440.097 161.335ZM433.121 188.534V167.41H439.862V188.534L433.121 188.534ZM450.366 188.534L442.41 167.41H449.386L453.932 182.341L458.518 167.41H465.258L457.302 188.534H450.366ZM487.599 179.794H472.746C473.217 182.145 475.327 183.806 477.723 183.713C479.628 183.698 481.449 182.922 482.779 181.558L486.346 185.046C483.947 187.543 480.596 188.898 477.136 188.769C470.238 188.769 465.926 184.458 465.926 178.03C465.926 171.486 470.395 167.174 476.94 167.174C484.386 167.174 488.07 172.074 487.6 179.794L487.599 179.794ZM481.094 176.149C481.277 173.979 479.667 172.072 477.498 171.889C477.338 171.876 477.178 171.872 477.018 171.878C474.666 171.878 473.059 173.602 472.628 176.149H481.094ZM515.232 165.489L511.195 170.271C509.518 168.142 507.004 166.842 504.298 166.705C500.071 166.708 496.647 170.136 496.65 174.363C496.65 174.462 496.652 174.561 496.656 174.66C496.656 179.246 499.948 182.733 504.298 182.733C506.923 182.583 509.391 181.433 511.195 179.52L515.271 183.83C512.287 186.904 508.227 188.702 503.945 188.847C495.676 188.847 489.523 182.772 489.523 174.739C489.523 166.822 495.833 160.864 504.18 160.864C508.325 160.909 512.29 162.568 515.232 165.489ZM538.945 177.952C538.945 184.458 534.321 188.769 527.423 188.769C520.486 188.769 515.861 184.458 515.861 177.952C515.861 171.446 520.486 167.174 527.423 167.174C534.321 167.174 538.945 171.447 538.945 177.952ZM522.681 178.03C522.681 181.322 524.601 183.517 527.423 183.517C530.206 183.517 532.126 181.322 532.126 178.03C532.126 174.778 530.206 172.544 527.423 172.544C524.601 172.544 522.681 174.778 522.681 178.03ZM564.148 175.209V188.534H557.407V177.09C557.407 174.621 555.957 173.092 553.684 173.092C551.214 173.092 549.647 174.856 549.373 177.364V188.534H542.593V167.41H549.373V170.858C550.86 168.409 553.565 166.968 556.427 167.097C561.091 167.097 564.147 170.271 564.147 175.209H564.148Z" fill="black"/>
<g opacity="0.8">
<path d="M206.521 0.99707H207.493V196.015H206.521V0.99707Z" fill="black"/>
<path d="M206.521 0.99707H207.493V196.015H206.521V0.99707Z" fill="black"/>
<mask id="mask0_216_117" style="mask-type:luminance" maskUnits="userSpaceOnUse" x="206" y="0" width="2" height="197">
<path d="M206.521 0.99707H207.493V196.015H206.521V0.99707Z" fill="white"/>
</mask>
<g mask="url(#mask0_216_117)">
<path d="M206.521 0.99707H207.493V196.015H206.521V0.99707Z" fill="black"/>
</g>
</g>
</svg>
