<svg width="300" height="80" viewBox="0 0 300 80" fill="none" xmlns="http://www.w3.org/2000/svg">
<g clip-path="url(#clip0_246_438)">
<path fill-rule="evenodd" clip-rule="evenodd" d="M46.1436 75.9902C51.1748 74.7324 59.6656 69.7262 61.055 67.3822L61.3657 45.4968C61.3657 45.4968 63.9106 42.4508 62.9791 41.5181C62.0483 40.5854 54.7866 37.3523 54.7866 37.3523C54.7866 37.3523 50.9383 40.0569 50.0692 40.1811C49.2001 40.3052 35.3588 40.4294 35.1416 40.4294C34.9245 40.4294 36.1 44.7206 36.7207 45.1555C37.3415 45.591 50.4997 45.2491 50.4997 45.2491L50.4261 60.1991C50.4261 66.8662 50.7418 71.7346 46.1436 75.9902Z" fill="black"/>
<path fill-rule="evenodd" clip-rule="evenodd" d="M58.8218 21.9328L58.946 13.4146C58.946 13.4146 51.3112 3.28049 33.7464 3.90191C14.5375 4.66682 1.0923 17.3209 0.08719 37.6809C-0.544828 50.4922 2.22407 61.3775 9.54126 68.7278C15.5607 74.7747 24.1831 78.3054 33.6621 77.9173C42.8748 77.5392 47.7562 71.8542 48.4874 69.3641C44.384 71.3195 39.4676 72.571 34.5356 72.4369C16.1697 71.9384 10.4565 53.7552 10.9619 39.4359C11.4891 24.4865 19.1694 8.18004 36.6313 8.93996C44.4033 9.27874 51.2276 13.5612 55.4702 21.9328H58.8218Z" fill="black"/>
<path fill-rule="evenodd" clip-rule="evenodd" d="M188.048 19.5702V11.9848C183.667 6.3303 175.776 3.72923 169.431 3.39357C157.986 2.789 146.711 7.95121 145.67 20.8549C144.955 29.7112 150.421 35.7918 159.559 40.1504C169.986 45.1242 179.545 49.2901 181.779 55.259C184.014 61.2279 179.669 71.8599 168.807 72.9792C159.89 73.93 149.401 69.3593 148.697 60.2952L145.532 60.0462L144.973 68.2531C144.973 68.2531 151.446 76.815 164.915 77.4994C178.384 78.1832 189.476 71.5492 190.966 62.4714C192.455 53.3935 190.903 44.378 176.441 36.9174C168.778 32.9637 153.677 28.2581 154.637 17.7384C155.413 9.21961 164.629 6.56801 171.978 7.66609C178.719 8.67432 184.138 14.4249 184.821 19.695L188.048 19.5702Z" fill="black"/>
<path fill-rule="evenodd" clip-rule="evenodd" d="M203.69 68.6887C203.69 68.6887 204.155 10.213 204.155 9.21846C204.155 8.22333 203.193 6.32727 203.193 6.32727L205.49 3.7156C205.49 3.7156 214.366 8.19276 214.552 8.50346C214.738 8.81417 214.49 9.31142 214.366 10.2442C214.241 11.1769 213.745 26.1607 213.993 33.8085C214.241 41.4564 214.117 74.7818 214.117 74.7818C214.117 74.7818 210.89 77.5794 210.145 77.7042C209.4 77.8283 209.027 78.0149 208.593 77.6424C208.159 77.2687 203.131 71.7352 203.131 71.7352C203.131 71.7352 203.845 69.0618 203.69 68.6887Z" fill="black"/>
<path fill-rule="evenodd" clip-rule="evenodd" d="M229.201 76.9582L229.263 8.81442L227.711 6.63823C227.711 6.63823 227.463 4.46204 228.022 4.46204C228.58 4.46204 241.243 5.45655 241.243 5.45655L242.16 9.59617L266.226 57.9471L264.973 50.4821L287.38 7.51856C287.38 7.51856 286.707 6.06299 286.397 5.81405C286.086 5.56511 287.852 2.66082 288.349 3.03329C288.737 3.32466 296.075 6.55025 298.976 7.93408C300.57 8.694 299.988 8.66531 299.342 9.90127C299.061 10.4391 298.925 11.1566 298.78 11.861C298.407 13.6641 299.083 73.2279 299.083 73.2279C299.083 73.2279 295.149 77.7356 294.155 77.5491C293.162 77.3619 287.829 72.1966 287.394 71.3886C287.394 71.3886 288.322 68.2528 288.319 66.519L288.23 17.0213L262.47 66.9476C262.47 66.9476 260.546 67.01 259.925 66.8235C259.305 66.6369 234.456 16.9695 234.456 16.9695L234.539 74.7203C234.539 74.7203 231.436 77.0824 229.201 76.9582Z" fill="black"/>
<path fill-rule="evenodd" clip-rule="evenodd" d="M125.036 28.6709C125.719 24.4925 125.951 17.9178 123.4 12.9209C102.077 -1.6629 76.6357 11.6226 71.6562 31.7461C74.0196 26.7736 81.2301 20.6349 89.8363 17.6707C100.555 13.9785 115.414 15.5039 125.036 28.6709Z" fill="black"/>
<path fill-rule="evenodd" clip-rule="evenodd" d="M104.322 63.9713C107.593 66.661 113.161 70.1636 118.763 70.4668C142.084 59.3531 143.373 30.6808 128.472 16.268C131.585 20.8088 133.272 30.1268 131.513 39.0574C129.322 50.1811 120.541 62.2643 104.322 63.9713Z" fill="black"/>
<path fill-rule="evenodd" clip-rule="evenodd" d="M83.2311 29.1597C79.283 30.6895 73.4988 33.8228 70.4847 38.5551C68.7252 64.3281 93.0751 79.5215 112.945 73.6106C107.461 74.0948 98.5143 70.9921 91.5964 65.0775C82.979 57.7097 76.7605 44.1285 83.2311 29.1597Z" fill="black"/>
</g>
<defs>
<clipPath id="clip0_246_438">
<rect width="300" height="80" fill="white"/>
</clipPath>
</defs>
</svg>
